<svg width="98px" height="40px" viewBox="0 0 98 40" version="1.1" xmlns="http://www.w3.org/2000/svg" xmlns:xlink="http://www.w3.org/1999/xlink">
    <defs>
        <rect id="path-1" x="0" y="0" width="90" height="32" rx="16"></rect>
        <filter x="-8.3%" y="-14.1%" width="116.7%" height="146.9%" filterUnits="objectBoundingBox" id="filter-2">
            <feOffset dx="0" dy="3" in="SourceAlpha" result="shadowOffsetOuter1"></feOffset>
            <feGaussianBlur stdDeviation="2" in="shadowOffsetOuter1" result="shadowBlurOuter1"></feGaussianBlur>
            <feColorMatrix values="0 0 0 0 0   0 0 0 0 0   0 0 0 0 0  0 0 0 0.25 0" type="matrix" in="shadowBlurOuter1"></feColorMatrix>
        </filter>
    </defs>
    <g id="Page-2" stroke="none" stroke-width="1" fill="none" fill-rule="evenodd">
        <g id="/main" transform="translate(-31.000000, -281.000000)">
            <g id="Group" transform="translate(35.000000, 282.000000)">
                <g id="Rectangle">
                    <use fill="black" fill-opacity="1" filter="url(#filter-2)" xlink:href="#path-1"></use>
                    <use fill="#D8D8D8" fill-rule="evenodd" xlink:href="#path-1"></use>
                </g>
                <path d="M45,7.10542736e-15 L45,32 L16,32 C7.163444,32 1.082166e-15,24.836556 0,16 C-1.082166e-15,7.163444 7.163444,1.623249e-15 16,0 L45,0 Z" id="Combined-Shape" fill="#D64E4E"></path>
                <path d="M45,6 L45,11 L15.5,11 C14.1192881,11 13,9.88071187 13,8.5 C13,7.11928813 14.1192881,6 15.5,6 L45,6 Z" id="Combined-Shape" fill="#FFFFFF" opacity="0.635091146"></path>
                <path d="M77,6 L77,11 L47.5,11 C46.1192881,11 45,9.88071187 45,8.5 C45,7.11928813 46.1192881,6 47.5,6 L77,6 Z" id="Combined-Shape" fill="#FFFFFF" opacity="0.718936012" transform="translate(61.000000, 8.500000) scale(-1, 1) translate(-61.000000, -8.500000) "></path>
            </g>
        </g>
    </g>
</svg>